<?xml version="1.0" encoding="utf-8"?>
<!-- Generator: Adobe Illustrator 21.0.0, SVG Export Plug-In . SVG Version: 6.00 Build 0)  -->
<svg version="1.1" id="Layer_1" xmlns="http://www.w3.org/2000/svg" xmlns:xlink="http://www.w3.org/1999/xlink" x="0px" y="0px"
	 viewBox="0 0 1000 1000" style="enable-background:new 0 0 1000 1000;" xml:space="preserve">
<style type="text/css">
	.st0{fill:#D15A90;}
</style>
<path class="st0" d="M104.5,278.7c3.9-0.7,7.5-2.7,11.5-2.8c37.3-1.4,74.9,7.5,107.7,25.5c27.2,14.8,50.9,35.9,69,61
	c11.9,16.2,21.2,34.2,28.2,53c19.1-38.8,50.4-71.4,88.4-92c33.9-18.4,73.1-27.3,111.6-24.8c49,2.7,96.5,23.7,131.9,57.6
	c17.8,17.5,33.2,37.6,43.7,60.4c11.1-32.4,30.7-61.9,55.9-85c26.9-25.1,60.6-42.7,96.5-50.7c18.3-4.3,37.2-6,55.9-4.4
	c9.9,3.6,20,7.7,28.2,14.4c22.4,16.6,35.2,44.6,35.3,72.2c0.3,19.8-5.6,39.7-17.2,55.8c10,8.1,18.2,18.4,23.9,29.9
	c16.5,32.4,12.4,74.6-11.3,102.5c18.9,24.5,24.1,58.5,14.3,87.8c-8.4,25.7-29,48.3-55.5,55.4c-2.7,1.4-5.3,3.2-8.5,3.4
	c-6.7,0.5-13.5,1.1-20.2,1.3c-20.3-0.8-40.7-2.6-60.1-8.9c-28.2-8.4-54.4-23.2-76.8-42.3c-21.3-18.4-38.7-41.3-51.1-66.5
	c-11.4,32-30.5,61.2-55.4,84.2c-27.6,25.8-62.4,43.7-99.3,51.5c-9.9,2.2-20.1,2.7-30.2,3.6c-10.7,1.1-21.5,0.4-32.2-0.5
	c-38.1-2.9-74.8-17.9-105.5-40.6c-14.3-11.2-28-23.5-38.9-38.1c-14.3-18-25.6-38.3-33.2-60c-14.5,30.1-36.7,56.4-63.4,76.4
	c-31,22.9-68.4,37.5-106.9,40c-4.6,0.3-9.2,0.7-13.9,1c-8.7,0.5-17.4-1.3-26.1-1c-6.2,0.2-12.2-1.9-18-3.9
	c-11.5-4.5-22.2-11.3-30.4-20.6c-29.3-30.9-32.5-82.5-7.9-117.1c-14-15-22-35-23.9-55.2c-0.4-3-0.3-6-0.1-9.1
	c-0.7-15.2,3.6-30.4,10.7-43.7c6-12,15.2-22.2,26-30.3c-11.3-16.7-16.7-37-15.8-57.1c0.8-12.3,3.7-24.5,8.8-35.7
	c6.2-13.4,15.8-25.3,27.7-34.1C86,285.6,94.8,280.6,104.5,278.7 M99.8,313.9c-5.2,2.9-9.3,7.4-13.2,11.8
	C76.3,337.8,71.8,354.3,73,370c1.3,13.8,6.1,27.8,15.9,38c3.4,3.3,5.3,8.2,4.7,12.9c-0.4,4.8-4,8.4-5.9,12.7
	c-2.1,4.2-6.6,6.1-10.4,8.6c-11.8,7.6-19.6,20-23.6,33.2c-2.1,7-2.1,14.4-1.9,21.6c1,15.4,7.1,31.1,18.9,41.4
	c3.7,3.7,9.1,5.7,11.6,10.4c3.5,5.9,2.3,14-2.7,18.7c-2.3,2.4-5.6,3.5-8.7,4.4c-2.8,5.6-6.5,10.7-8.2,16.8
	c-4.9,13.8-4.7,29.4,0.4,43.1c3,9.2,8.4,17.9,16.1,23.9c5.8,5.4,13,9.5,20.9,11c6.3,0,12.6,0.5,18.9,1c5.9,0.5,11.7-0.3,17.6-0.6
	c40.5-2.2,79.7-19.9,109-47.7c24.9-23.5,42.9-54.1,51.3-87.3c-32.5,17.4-69,27.5-105.8,28.1c-7.8-0.4-14.4-7.6-14.2-15.4
	c-0.2-7.8,6.4-15,14.2-15.4c10.3-0.7,20.7-1.5,30.9-3.3c27.6-5.3,54.2-16,77.5-31.7c0.3-3.3,0.6-6.6,0.9-9.8
	c-5.1-5.9-11.1-11-17.1-15.9c-26-21.7-58-35.6-91.1-42.1c-5.3-1.1-9.8-5.2-11.4-10.3c-2-6.1,0.3-13.4,5.6-17.2
	c3.8-2.9,8.8-3.5,13.3-2.5c34.6,7,67.9,21.2,96.1,42.5c-3.8-12.7-8.1-25.4-14.6-37.1c-11.2-21.3-26.8-40.3-45.5-55.5
	c-32-26.1-73.3-40.5-114.6-39.8C113.7,308.1,106.3,310.1,99.8,313.9 M874.9,308.1c-32.8,3.1-64.4,16.3-90.3,36.6
	c-27.5,21.5-48.7,51.1-59.7,84.2c22.7-13.1,47.2-23.3,73-28.1c7.4-1.3,15.2,3.9,17,11.2c2.3,7.6-2.5,16.6-10.2,18.8
	c-16.7,3.9-33.3,8.8-48.7,16.5c-14.6,6.7-28,15.6-40.5,25.6c0.2,8.5,2.1,16.9,2.2,25.4c29.3,20.2,63.9,32.6,99.4,35.6
	c5.9,0.8,10.9,5.5,12.4,11.3c1.8,6.3-1.1,13.5-6.6,16.9c-3.5,2.4-7.9,2.7-11.9,2.2c-31.1-2.9-61.5-12.6-89.1-27.3
	c6.6,24.3,19.1,46.6,34.7,66.3c27,32.4,65.5,55.3,107.2,62.2c15.6,2,31.4,3.6,47.1,1.4c8.1-3.9,16.6-7.4,23.1-13.8
	c22.6-21.8,24.1-61.1,3.7-84.9c-3-5-8.7-8.3-9.9-14.3c-1.4-5.5,0.6-11.5,4.9-15.2c17.2-14.4,24.4-38.9,19.8-60.6
	c-2.7-12.8-9.3-24.9-19.3-33.4c-4-3.9-9.3-6-13.9-9.1c-7.8-5.6-9.2-18.6-1.8-25.1c16.5-14.6,23.2-38.5,18.6-59.8
	c-2.9-13.2-9.6-26.1-20.6-34.3c-4.8-4.3-10.8-7-16.8-9.1C890.8,306.3,882.8,307.4,874.9,308.1 M501.2,329.3
	c-30.9,1.1-61.4,10.7-87.5,27.4c-31.4,19.7-56.1,49.5-70.3,83.7c-14.2,34.6-17.8,73.8-9,110.2c3.9,19.2,11.9,37.3,21.8,54.1
	c9.2,14.4,19.7,28.1,32.6,39.3c29.2,26.6,67.4,43.6,107,45.7c13.8,1.5,27.5-0.2,41.2-1.6c42.2-6.6,81.5-29.4,108.6-62.3
	c23.9-28.9,38.6-65.4,41.1-102.8c-0.3-7.4-2.1-14.6-2.2-22c-0.9-9,0.2-18.1-0.9-27c-5.8-28.9-18.7-56.5-37.5-79.3
	c-11-13.3-23.6-25.4-38.1-34.8C577.1,338.4,539,327.5,501.2,329.3z"/>
<path class="st0" d="M902,351c3.8-2,8.6-0.7,11.4,2.5c6,6.6,6.1,17.7,0.5,24.5c-2.6,3.2-7.3,5.1-11.2,3.2
	c-8.6-3.8-16.2-9.6-23.7-15.2C886.3,360.5,893.7,354.9,902,351z"/>
<path class="st0" d="M108.6,359.6c2.5-3.5,7.4-5.8,11.6-3.9c8.7,3.7,16.2,9.6,23.8,15.3c-7.3,5.5-14.7,11.1-23,15
	c-3.6,1.9-8.2,0.9-11-2C103.8,377.7,103.4,366.6,108.6,359.6z"/>
<path class="st0" d="M917,478c3.9-2,8.7-0.7,11.4,2.5c5.9,6.6,6,17.6,0.4,24.5c-2.6,3.2-7.2,5.1-11.2,3.3
	c-8.7-3.8-16.2-9.6-23.7-15.3C901.3,487.5,908.7,481.9,917,478z"/>
<path class="st0" d="M94.5,485.5c2.8-3.2,7.6-4.5,11.4-2.5c8.3,3.8,15.7,9.5,23,15c-7.3,5.5-14.7,11.2-23.1,15
	c-3.8,2-8.6,0.7-11.4-2.5C88.5,503.8,88.4,492.3,94.5,485.5z"/>
<path class="st0" d="M917,606c3.8-2.1,8.7-0.7,11.5,2.5c5.9,6.6,6.1,17.6,0.5,24.5c-2.6,3.2-7.3,5.1-11.2,3.3
	c-8.7-3.8-16.2-9.6-23.7-15.2C901.3,615.5,908.7,609.9,917,606z"/>
<path class="st0" d="M94.1,614c2.6-3.2,7.2-5.1,11.2-3.3c8.7,3.8,16.2,9.6,23.7,15.2c-7.3,5.5-14.7,11.1-23,15
	c-3.9,2-8.7,0.7-11.5-2.5C88.6,631.8,88.5,620.8,94.1,614z"/>
</svg>
