<svg id="Layer_1" data-name="Layer 1" xmlns="http://www.w3.org/2000/svg" width="3.6in" height="3.6in" viewBox="0 0 256 256"><title>candy-bg</title><path d="M30.5-27.2a9.5,9.5,0,0,1,1.4-.3,25.8,25.8,0,0,1,13.3,3.2,25.8,25.8,0,0,1,8.5,7.5,26.9,26.9,0,0,1,3.5,6.6A26.2,26.2,0,0,1,68.2-21.7,25.7,25.7,0,0,1,82-24.7a25.9,25.9,0,0,1,16.3,7.1,25.6,25.6,0,0,1,5.4,7.5,25.7,25.7,0,0,1,6.9-10.5,25.8,25.8,0,0,1,11.9-6.3,22.1,22.1,0,0,1,6.9-.5,11.8,11.8,0,0,1,3.5,1.8,11.3,11.3,0,0,1,4.4,8.9,11.6,11.6,0,0,1-2.1,6.9,11.2,11.2,0,0,1,3,3.7,11.8,11.8,0,0,1-1.4,12.7,11.9,11.9,0,0,1,1.8,10.9,10.4,10.4,0,0,1-6.9,6.9,2.7,2.7,0,0,1-1.1.4l-2.5.2a27.5,27.5,0,0,1-7.4-1.1,26.3,26.3,0,0,1-9.5-5.2,26.2,26.2,0,0,1-6.3-8.2,26.2,26.2,0,0,1-6.9,10.4,26,26,0,0,1-12.3,6.4,29.1,29.1,0,0,1-3.7.4,21.4,21.4,0,0,1-4-.1,25.4,25.4,0,0,1-13.1-5,25.6,25.6,0,0,1-4.8-4.7,25.5,25.5,0,0,1-4.1-7.4,26,26,0,0,1-7.8,9.5,25.2,25.2,0,0,1-13.2,5H33.3c-1.1.1-2.2-.2-3.2-.1a6.3,6.3,0,0,1-2.2-.5,9.7,9.7,0,0,1-3.8-2.5,11.8,11.8,0,0,1-1-14.5,11.6,11.6,0,0,1-3-6.8,5.7,5.7,0,0,1,0-1.1,10.6,10.6,0,0,1,1.3-5.4A10.8,10.8,0,0,1,24.7-10a11.7,11.7,0,0,1-2-7.1,12.7,12.7,0,0,1,1.1-4.4,11,11,0,0,1,3.4-4.2,8.9,8.9,0,0,1,3.3-1.5m-.6,4.4a6.6,6.6,0,0,0-1.6,1.5,7.6,7.6,0,0,0-1.7,5.5,7.8,7.8,0,0,0,2,4.7,1.9,1.9,0,0,1,.6,1.6c0,.6-.5,1-.7,1.6s-.8.8-1.3,1.1a7.4,7.4,0,0,0-2.9,4.1A8.5,8.5,0,0,0,24-.2a7.4,7.4,0,0,0,2.3,5.1c.5.5,1.1.7,1.4,1.3a1.9,1.9,0,0,1-.3,2.3,2.3,2.3,0,0,1-1.1.5,12,12,0,0,0-1,2.1,7.9,7.9,0,0,0,0,5.3,6.2,6.2,0,0,0,2,3A5.3,5.3,0,0,0,30,20.8h4.5A21.5,21.5,0,0,0,48,15,22.5,22.5,0,0,0,54.3,4.2,28.9,28.9,0,0,1,41.2,7.6a1.9,1.9,0,0,1,0-3.8l3.8-.4A26,26,0,0,0,54.6-.5V-1.7a16.8,16.8,0,0,0-2.1-2A25.2,25.2,0,0,0,41.4-8.9,1.9,1.9,0,0,1,40-10.2a1.9,1.9,0,0,1,.7-2.1,2,2,0,0,1,1.6-.3A29.4,29.4,0,0,1,54.2-7.4,22.8,22.8,0,0,0,52.4-12a22.2,22.2,0,0,0-5.6-6.9,22.1,22.1,0,0,0-14.2-4.9,8.2,8.2,0,0,0-2.6.9m95.9-.7A21.6,21.6,0,0,0,114.7-19a22.3,22.3,0,0,0-7.4,10.4,28.7,28.7,0,0,1,9-3.5,1.9,1.9,0,0,1,2.1,1.4,1.9,1.9,0,0,1-1.3,2.3,27.3,27.3,0,0,0-6,2,24.3,24.3,0,0,0-5,3.2c0,1.1.3,2.1.3,3.1a25.6,25.6,0,0,0,12.3,4.4,1.9,1.9,0,0,1,.7,3.5,2.1,2.1,0,0,1-1.5.3,29.4,29.4,0,0,1-11-3.4,23.1,23.1,0,0,0,4.3,8.2,22.2,22.2,0,0,0,13.3,7.7,21.9,21.9,0,0,0,5.8.2,10.1,10.1,0,0,0,2.9-1.7,7.9,7.9,0,0,0,.5-10.5c-.4-.6-1.1-1-1.2-1.8A1.9,1.9,0,0,1,133,5a7.8,7.8,0,0,0,2.5-7.5,7.4,7.4,0,0,0-2.4-4.1,11.4,11.4,0,0,0-1.7-1.1,2.1,2.1,0,0,1-.2-3.1,7.8,7.8,0,0,0,2.3-7.4,7.2,7.2,0,0,0-2.5-4.2,6.1,6.1,0,0,0-2.1-1.1,13.8,13.8,0,0,0-2.9.1M79.6-20.9a21.6,21.6,0,0,0-10.8,3.4A22.4,22.4,0,0,0,60.1-7.2,22.4,22.4,0,0,0,59,6.4a21.9,21.9,0,0,0,2.7,6.7,22.1,22.1,0,0,0,4,4.9,21.6,21.6,0,0,0,13.2,5.7,24.2,24.2,0,0,0,5.1-.2,22,22,0,0,0,13.4-7.7A22.5,22.5,0,0,0,102.6,3c0-.9-.3-1.8-.3-2.7s0-2.2-.1-3.3a22.4,22.4,0,0,0-4.6-9.8,21.1,21.1,0,0,0-4.7-4.3A21.5,21.5,0,0,0,79.6-20.9Z" fill="#d15a90" opacity="0.58"/><path d="M131.1-2.5a1.2,1.2,0,0,1,1.4.3,2.4,2.4,0,0,1,0,3,1.2,1.2,0,0,1-1.4.4,14.7,14.7,0,0,1-2.9-1.9A17.1,17.1,0,0,1,131.1-2.5Z" fill="#d15a90" opacity="0.58"/><path d="M29.3-1.6a1.2,1.2,0,0,1,1.4-.3A15.8,15.8,0,0,1,33.5-.1a15.5,15.5,0,0,1-2.9,1.9,1.2,1.2,0,0,1-1.4-.3A2.4,2.4,0,0,1,29.3-1.6Z" fill="#d15a90" opacity="0.58"/><path d="M131.1,13.3a1.2,1.2,0,0,1,1.4.3,2.4,2.4,0,0,1,.1,3,1.2,1.2,0,0,1-1.4.4,15.2,15.2,0,0,1-2.9-1.9A15.4,15.4,0,0,1,131.1,13.3Z" fill="#d15a90" opacity="0.58"/><path d="M29.2,14.3a1.2,1.2,0,0,1,1.4-.4,15.2,15.2,0,0,1,2.9,1.9,16.5,16.5,0,0,1-2.8,1.9,1.2,1.2,0,0,1-1.4-.3A2.4,2.4,0,0,1,29.2,14.3Z" fill="#d15a90" opacity="0.58"/><path d="M131.3,95.7a9.5,9.5,0,0,1,1.4-.3,25.8,25.8,0,0,1,21.9,10.7,26.9,26.9,0,0,1,3.5,6.6A26.2,26.2,0,0,1,169,101.3a25.8,25.8,0,0,1,35.5,11.5A26.1,26.1,0,0,1,223.4,96a22.1,22.1,0,0,1,6.9-.5,11.8,11.8,0,0,1,3.5,1.8,11.3,11.3,0,0,1,4.4,8.9,11.6,11.6,0,0,1-2.1,6.9,11.2,11.2,0,0,1,3,3.7,11.8,11.8,0,0,1-1.4,12.7,11.9,11.9,0,0,1,1.8,10.9,10.4,10.4,0,0,1-6.9,6.9,2.7,2.7,0,0,1-1.1.4l-2.5.2a27.5,27.5,0,0,1-7.4-1.1,25.9,25.9,0,0,1-15.8-13.5A26.1,26.1,0,0,1,186.6,150a29.1,29.1,0,0,1-3.7.4,21.4,21.4,0,0,1-4-.1,26,26,0,0,1-22-17.2,26,26,0,0,1-7.8,9.5,25.2,25.2,0,0,1-13.2,5h-1.7c-1.1.1-2.2-.2-3.2-.1a6.3,6.3,0,0,1-2.2-.5,9.7,9.7,0,0,1-3.8-2.5,11.8,11.8,0,0,1-1-14.5,11.6,11.6,0,0,1-3-6.8,5.7,5.7,0,0,1,0-1.1,10.6,10.6,0,0,1,1.3-5.4,10.8,10.8,0,0,1,3.2-3.8,11.7,11.7,0,0,1-2-7.1,12.7,12.7,0,0,1,1.1-4.4,11,11,0,0,1,3.4-4.2,8.9,8.9,0,0,1,3.3-1.5m-.6,4.4a6.6,6.6,0,0,0-1.6,1.5,7.6,7.6,0,0,0-1.7,5.5,7.8,7.8,0,0,0,2,4.7,1.9,1.9,0,0,1,.6,1.6c0,.6-.5,1-.7,1.6s-.8.8-1.3,1.1a7.4,7.4,0,0,0-2.9,4.1,8.5,8.5,0,0,0-.2,2.7,7.4,7.4,0,0,0,2.3,5.1c.5.5,1.1.7,1.4,1.3a1.9,1.9,0,0,1-.3,2.3,2.3,2.3,0,0,1-1.1.5,12,12,0,0,0-1,2.1,7.9,7.9,0,0,0,0,5.3,6.2,6.2,0,0,0,2,3,5.3,5.3,0,0,0,2.6,1.4h4.5a21.5,21.5,0,0,0,13.5-5.9,22.5,22.5,0,0,0,6.3-10.8,28.9,28.9,0,0,1-13.1,3.5,1.9,1.9,0,0,1,0-3.8l3.8-.4a26,26,0,0,0,9.6-3.9v-1.2a16.8,16.8,0,0,0-2.1-2,25.2,25.2,0,0,0-11.3-5.2,1.9,1.9,0,0,1-1.4-1.3,1.9,1.9,0,0,1,.7-2.1,2,2,0,0,1,1.6-.3,29.4,29.4,0,0,1,11.9,5.3,22.8,22.8,0,0,0-1.8-4.6,22.1,22.1,0,0,0-19.8-11.8,8.2,8.2,0,0,0-2.6.9m95.9-.7a21.6,21.6,0,0,0-11.2,4.5,22.3,22.3,0,0,0-7.4,10.4,28.7,28.7,0,0,1,9-3.5,1.9,1.9,0,0,1,2.1,1.4,1.9,1.9,0,0,1-1.3,2.3,27.3,27.3,0,0,0-6,2,24.3,24.3,0,0,0-5,3.2c0,1.1.3,2.1.3,3.1a25.6,25.6,0,0,0,12.3,4.4,1.9,1.9,0,0,1,.7,3.5,2.1,2.1,0,0,1-1.5.3,29.4,29.4,0,0,1-11-3.4,23.1,23.1,0,0,0,4.3,8.2,22.2,22.2,0,0,0,13.3,7.7,21.9,21.9,0,0,0,5.8.2,10.1,10.1,0,0,0,2.9-1.7,7.9,7.9,0,0,0,.5-10.5c-.4-.6-1.1-1-1.2-1.8a1.9,1.9,0,0,1,.6-1.9,7.8,7.8,0,0,0,2.5-7.5,7.4,7.4,0,0,0-2.4-4.1,11.4,11.4,0,0,0-1.7-1.1,2.1,2.1,0,0,1-.2-3.1,7.8,7.8,0,0,0,2.3-7.4,7.2,7.2,0,0,0-2.5-4.2,6.1,6.1,0,0,0-2.1-1.1,13.8,13.8,0,0,0-2.9.1M180.4,102a21.6,21.6,0,0,0-10.8,3.4,22.4,22.4,0,0,0-9.8,24,21.9,21.9,0,0,0,2.7,6.7,22.1,22.1,0,0,0,4,4.9,21.6,21.6,0,0,0,13.2,5.7,24.2,24.2,0,0,0,5.1-.2,22,22,0,0,0,13.4-7.7,22.5,22.5,0,0,0,5.1-12.7c0-.9-.3-1.8-.3-2.7s0-2.2-.1-3.3a22.4,22.4,0,0,0-4.6-9.8,21.1,21.1,0,0,0-4.7-4.3A21.5,21.5,0,0,0,180.4,102Z" fill="#d15a90" opacity="0.58"/><path d="M230,101.7a1.2,1.2,0,0,1,1.4.3,2.4,2.4,0,0,1,.1,3,1.2,1.2,0,0,1-1.4.4,15.6,15.6,0,0,1-2.9-1.9A16.5,16.5,0,0,1,230,101.7Z" fill="#d15a90" opacity="0.58"/><path d="M131.8,102.8a1.2,1.2,0,0,1,1.4-.5,14.6,14.6,0,0,1,2.9,1.9,16.5,16.5,0,0,1-2.8,1.9,1.2,1.2,0,0,1-1.4-.2A2.4,2.4,0,0,1,131.8,102.8Z" fill="#d15a90" opacity="0.58"/><path d="M231.9,117.4a1.2,1.2,0,0,1,1.4.3,2.4,2.4,0,0,1,0,3,1.2,1.2,0,0,1-1.4.4,14.7,14.7,0,0,1-2.9-1.9A17.1,17.1,0,0,1,231.9,117.4Z" fill="#d15a90" opacity="0.58"/><path d="M130.1,118.3a1.2,1.2,0,0,1,1.4-.3,15.8,15.8,0,0,1,2.8,1.9,15.5,15.5,0,0,1-2.9,1.9,1.2,1.2,0,0,1-1.4-.3A2.4,2.4,0,0,1,130.1,118.3Z" fill="#d15a90" opacity="0.58"/><path d="M231.9,133.2a1.2,1.2,0,0,1,1.4.3,2.4,2.4,0,0,1,.1,3,1.2,1.2,0,0,1-1.4.4,15.2,15.2,0,0,1-2.9-1.9A15.4,15.4,0,0,1,231.9,133.2Z" fill="#d15a90" opacity="0.58"/><path d="M130,134.2a1.2,1.2,0,0,1,1.4-.4,15.2,15.2,0,0,1,2.9,1.9,16.5,16.5,0,0,1-2.8,1.9,1.2,1.2,0,0,1-1.4-.3A2.4,2.4,0,0,1,130,134.2Z" fill="#d15a90" opacity="0.58"/><path d="M30.5,229.1a9.5,9.5,0,0,1,1.4-.3,25.8,25.8,0,0,1,21.9,10.7,26.9,26.9,0,0,1,3.5,6.6,26.2,26.2,0,0,1,10.9-11.4,25.8,25.8,0,0,1,35.5,11.5,26.1,26.1,0,0,1,18.9-16.8,22.1,22.1,0,0,1,6.9-.5,11.8,11.8,0,0,1,3.5,1.8,11.3,11.3,0,0,1,4.4,8.9,11.6,11.6,0,0,1-2.1,6.9,11.2,11.2,0,0,1,3,3.7,11.8,11.8,0,0,1-1.4,12.7,11.9,11.9,0,0,1,1.8,10.9,10.4,10.4,0,0,1-6.9,6.9,2.7,2.7,0,0,1-1.1.4l-2.5.2a27.5,27.5,0,0,1-7.4-1.1,25.9,25.9,0,0,1-15.8-13.5,26.1,26.1,0,0,1-19.1,16.8,29.1,29.1,0,0,1-3.7.4,21.4,21.4,0,0,1-4-.1,26,26,0,0,1-22-17.2,26,26,0,0,1-7.8,9.5A25.2,25.2,0,0,1,35,281H33.3c-1.1.1-2.2-.2-3.2-.1a6.3,6.3,0,0,1-2.2-.5,9.7,9.7,0,0,1-3.8-2.5,11.8,11.8,0,0,1-1-14.5,11.6,11.6,0,0,1-3-6.8,5.7,5.7,0,0,1,0-1.1,10.6,10.6,0,0,1,1.3-5.4,10.8,10.8,0,0,1,3.2-3.8,11.7,11.7,0,0,1-2-7.1,12.7,12.7,0,0,1,1.1-4.4,11,11,0,0,1,3.4-4.2,8.9,8.9,0,0,1,3.3-1.5m-.6,4.4a6.6,6.6,0,0,0-1.6,1.5,7.6,7.6,0,0,0-1.7,5.5,7.8,7.8,0,0,0,2,4.7,1.9,1.9,0,0,1,.6,1.6c0,.6-.5,1-.7,1.6s-.8.8-1.3,1.1a7.4,7.4,0,0,0-2.9,4.1,8.5,8.5,0,0,0-.2,2.7,7.4,7.4,0,0,0,2.3,5.1c.5.5,1.1.7,1.4,1.3a1.9,1.9,0,0,1-.3,2.3,2.3,2.3,0,0,1-1.1.5,12,12,0,0,0-1,2.1,7.9,7.9,0,0,0,0,5.3,6.2,6.2,0,0,0,2,3,5.3,5.3,0,0,0,2.6,1.4h4.5A21.5,21.5,0,0,0,48,271.3a22.5,22.5,0,0,0,6.3-10.8A28.9,28.9,0,0,1,41.2,264a1.9,1.9,0,0,1,0-3.8l3.8-.4a26,26,0,0,0,9.6-3.9v-1.2a16.8,16.8,0,0,0-2.1-2,25.2,25.2,0,0,0-11.3-5.2,1.9,1.9,0,0,1-1.4-1.3,1.9,1.9,0,0,1,.7-2.1,2,2,0,0,1,1.6-.3A29.4,29.4,0,0,1,54.2,249a22.8,22.8,0,0,0-1.8-4.6,22.1,22.1,0,0,0-19.8-11.8,8.2,8.2,0,0,0-2.6.9m95.9-.7a21.6,21.6,0,0,0-11.2,4.5,22.3,22.3,0,0,0-7.4,10.4,28.7,28.7,0,0,1,9-3.5,1.9,1.9,0,0,1,2.1,1.4,1.9,1.9,0,0,1-1.3,2.3,27.3,27.3,0,0,0-6,2,24.3,24.3,0,0,0-5,3.2c0,1.1.3,2.1.3,3.1a25.6,25.6,0,0,0,12.3,4.4,1.9,1.9,0,0,1,.7,3.5,2.1,2.1,0,0,1-1.5.3,29.4,29.4,0,0,1-11-3.4,23.1,23.1,0,0,0,4.3,8.2,22.2,22.2,0,0,0,13.3,7.7,21.9,21.9,0,0,0,5.8.2,10.1,10.1,0,0,0,2.9-1.7,7.9,7.9,0,0,0,.5-10.5c-.4-.6-1.1-1-1.2-1.8a1.9,1.9,0,0,1,.6-1.9,7.8,7.8,0,0,0,2.5-7.5,7.4,7.4,0,0,0-2.4-4.1,11.4,11.4,0,0,0-1.7-1.1,2.1,2.1,0,0,1-.2-3.1,7.8,7.8,0,0,0,2.3-7.4,7.2,7.2,0,0,0-2.5-4.2,6.1,6.1,0,0,0-2.1-1.1,13.8,13.8,0,0,0-2.9.1m-46.3,2.6a21.6,21.6,0,0,0-10.8,3.4,22.4,22.4,0,0,0-9.8,24,21.9,21.9,0,0,0,2.7,6.7,22.1,22.1,0,0,0,4,4.9A21.6,21.6,0,0,0,78.9,280a24.2,24.2,0,0,0,5.1-.2,22,22,0,0,0,13.4-7.7,22.5,22.5,0,0,0,5.1-12.7c0-.9-.3-1.8-.3-2.7s0-2.2-.1-3.3a22.4,22.4,0,0,0-4.6-9.8,21.1,21.1,0,0,0-4.7-4.3A21.5,21.5,0,0,0,79.6,235.4Z" fill="#d15a90" opacity="0.58"/><path d="M129.2,235.1a1.2,1.2,0,0,1,1.4.3,2.4,2.4,0,0,1,.1,3,1.2,1.2,0,0,1-1.4.4,15.6,15.6,0,0,1-2.9-1.9A16.5,16.5,0,0,1,129.2,235.1Z" fill="#d15a90" opacity="0.58"/><path d="M31,236.1a1.2,1.2,0,0,1,1.4-.5,14.6,14.6,0,0,1,2.9,1.9,16.5,16.5,0,0,1-2.8,1.9,1.2,1.2,0,0,1-1.4-.2A2.4,2.4,0,0,1,31,236.1Z" fill="#d15a90" opacity="0.58"/><path d="M131.1,250.8a1.2,1.2,0,0,1,1.4.3,2.4,2.4,0,0,1,0,3,1.2,1.2,0,0,1-1.4.4,14.7,14.7,0,0,1-2.9-1.9A17.1,17.1,0,0,1,131.1,250.8Z" fill="#d15a90" opacity="0.58"/><path d="M29.3,251.7a1.2,1.2,0,0,1,1.4-.3,15.8,15.8,0,0,1,2.8,1.9,15.5,15.5,0,0,1-2.9,1.9,1.2,1.2,0,0,1-1.4-.3A2.4,2.4,0,0,1,29.3,251.7Z" fill="#d15a90" opacity="0.58"/></svg>