<?xml version="1.0" encoding="utf-8"?>
<!-- Generator: Adobe Illustrator 21.0.0, SVG Export Plug-In . SVG Version: 6.00 Build 0)  -->
<svg version="1.1" id="Layer_1" xmlns="http://www.w3.org/2000/svg" xmlns:xlink="http://www.w3.org/1999/xlink" x="0px" y="0px"
	 viewBox="0 0 1000 1000" style="enable-background:new 0 0 1000 1000;" xml:space="preserve">
<style type="text/css">
	.st0{fill:#D15A90;}
</style>
<path class="st0" d="M889.4,343.6c7.9-2.8,17.4,2.1,19.6,10.3c2.8,8.4-3.2,18.2-11.9,19.6c-8.2,1.8-16.9-4.3-18.1-12.5
	C877.6,353.6,882.3,345.8,889.4,343.6z"/>
<path class="st0" d="M878.3,483.4c10.5-4.2,22.7,5.7,21.9,16.7c-0.3,7.2-6.2,13.5-13.3,14.4c-10.2,1.6-20.2-8.4-18.7-18.6
	C868.9,490.2,873,485.3,878.3,483.4z"/>
<path class="st0" d="M896.4,603.8c8.9-2.9,19.1,4,19.7,13.3c1.5,7.4-3,15.6-10.3,17.8c-8.5,3.2-18.7-2.8-20.1-11.7
	C883.7,615.2,888.2,605.9,896.4,603.8z"/>
<path class="st0" d="M149.4,323.5c8.1-2.2,17.2,3.3,18.8,11.5c2.1,8.1-3.6,17-11.8,18.5c-8.3,2.1-17.4-4.1-18.5-12.6
	C136.4,333.3,141.8,325.3,149.4,323.5z"/>
<path class="st0" d="M569.4,363.4c8.9-2.8,19,4.2,19.5,13.5c1.1,8.5-6.2,16.9-14.8,16.9c-8.2,0.5-15.8-6.5-16-14.6
	C557.6,372.1,562.5,365.2,569.4,363.4z"/>
<path class="st0" d="M449.3,394.5c8.5-3.5,19.1,2.4,20.6,11.5c1.8,8-3.9,16.6-12,18.1c-7.4,1.7-15.6-2.9-17.8-10.2
	C437.4,406.3,441.7,397.1,449.3,394.5z"/>
<path class="st0" d="M101.4,443.5c7.7-1.7,16.1,3.6,17.9,11.2c1.7,7.5-1.6,16.4-8.8,19.8c-6.5,3.3-15,1.1-19.2-4.9
	C84.5,460.6,90.1,445.4,101.4,443.5z"/>
<path class="st0" d="M554.4,445.5c8.3-2.9,18.1,2.8,19.7,11.5c2,8.2-3.9,17.1-12.2,18.5c-7.8,1.7-16.2-3.7-17.9-11.4
	C542,456.3,546.8,447.7,554.4,445.5z"/>
<path class="st0" d="M773.3,454.4c8.2-3.4,18.5,2,20.4,10.7c2.4,8.5-3.9,18-12.6,19.1c-8.2,1.5-16.7-4.8-17.6-13.1
	C762.2,464.1,766.6,456.7,773.3,454.4z"/>
<path class="st0" d="M213.4,470.7c8.5-2.1,17.8,4.5,18.6,13.3c1.3,8.4-5.5,16.7-14,17.2c-8.2,1-16.3-5.8-16.7-14
	C200.4,479.6,206,472.1,213.4,470.7z"/>
<path class="st0" d="M366.4,482.6c9.9-2.5,21,6.1,20.6,16.4c0,6.2-4.2,12.1-10,14.2c-9.6,3.8-21.5-3.9-22.3-14.2
	C353.9,491.6,359.2,484.3,366.4,482.6z"/>
<path class="st0" d="M613.3,504.4c8-3.2,17.9,1.7,20.1,10c2.8,8.2-2.9,17.9-11.4,19.6c-7.7,1.9-16.2-3.1-18.2-10.7
	C601.5,515.7,605.9,506.9,613.3,504.4z"/>
<path class="st0" d="M471.4,512.7c8.5-2.7,18.2,3.4,19.5,12.2c1.8,8.5-5.1,17.5-13.8,18c-8.2,1-16.2-5.7-16.8-13.9
	C459.4,521.9,464.4,514.6,471.4,512.7z"/>
<path class="st0" d="M413.4,575.6c7.4-2,15.8,2.4,18.3,9.7c2.4,7.1,0.2,16-6.4,20.1c-6.4,4.3-15.8,2.8-20.5-3.3
	C397.8,593.5,402.2,578.1,413.4,575.6z"/>
<path class="st0" d="M799.4,583.6c8.5-2.8,18.4,3.5,19.5,12.3c1.7,8.5-5.2,17.4-13.8,17.9c-8.1,1-16-5.5-16.7-13.6
	C787.3,592.9,792.3,585.5,799.4,583.6z"/>
<path class="st0" d="M116.2,603.3c9.2-3.6,20.3,3.7,20.5,13.6c1.1,10.7-10.6,19.5-20.7,16.8c-6.8-1.7-12-8.5-11.5-15.6
	C104.6,611.1,109.9,605.4,116.2,603.3z"/>
<path class="st0" d="M564.4,622.7c8.5-3.4,18.9,2.3,20.5,11.3c2,8.4-4.4,17.5-13,18.5c-8,1.3-16.1-4.6-17.4-12.5
	C553.1,632.7,557.5,625.1,564.4,622.7z"/>
<path class="st0" d="M101.4,279.5c4.9-0.9,9.6-3.1,14.6-3.6c31.8-1.2,63.9,5,92.9,18.2c27.4,12.2,52.1,30.6,71.8,53.2
	c17.5,19.9,31,43.3,40.2,68.1c19.1-38.8,50.4-71.5,88.4-92c34.2-18.6,73.7-27.4,112.5-24.8c36,2.3,71.4,14,101.4,34.1
	c24,15.4,44.2,36.4,60,60c4.9,7.7,9.8,15.5,13.3,23.9c17.5-51.5,56.4-95,105-119.1c15.1-7.5,31.1-13.1,47.5-16.8
	c18.2-4.3,37.2-6,55.9-4.3c9.9,3.6,19.9,7.7,28.2,14.3c23.2,17.2,36.1,46.6,35.3,75.2c-0.3,18.8-6.2,37.5-17.2,52.8
	c21.4,17.3,34.1,44.7,33.7,72.1c0.4,21.7-7.1,43.6-21.2,60.3c19.1,24.8,24.2,59.2,14,88.7c-8.1,24.1-26.9,45.2-51.3,53.3
	c-4.5,0.6-7.9,4.2-12.5,4.6c-11,1-22.1,1.8-33.1,0.6c-62.1-2.9-121.3-36.6-157.2-87.1c-6.7-9.4-12.6-19.4-17.8-29.8
	c-11.4,31.9-30.5,61.1-55.4,84.1c-26.2,24.4-58.9,41.9-93.8,50.2c-14,3.6-28.4,4.3-42.8,5.4c-23.6,0.2-47.5-2.5-70-10
	c-34.6-11.3-66-31.9-90.6-58.7c-18.3-20.7-33.1-44.7-42.2-70.9c-15.3,31.6-38.9,59-67.5,79.3c-24.4,17.2-52.5,29.1-81.8,34.6
	c-11.6,2-23.3,2.7-35,3.5c-8.7,0.5-17.3-1.3-26-1c-6.2,0.2-12.2-1.9-18-3.9c-11.5-4.5-22.3-11.3-30.5-20.6
	c-29.3-30.9-32.5-82.5-7.8-117c-17-18.2-25.4-43.7-24-68.5c0.1-13.8,4.3-27.4,10.8-39.5c6-12,15.2-22.3,26-30.3
	c-12.6-18.6-17.9-41.9-15.2-64.1c2-14.2,6.5-28.2,14.6-40.1C67.3,298,82.9,284.8,101.4,279.5 M115,308c-9.2,2.2-18.2,6.3-24.6,13.4
	c-12.9,12.4-18.8,31-17.5,48.6c1.2,13.8,6.1,27.8,15.8,37.9c3.4,3.3,5.3,8.1,4.7,12.9c-0.4,4.8-3.9,8.5-5.9,12.7
	c-1.9,4-6.2,6-9.8,8.2c-13.2,8.3-21.8,22.7-25.2,37.7c-3.5,20.6,1.5,43.9,17.4,58.4c4,4.1,9.9,6.2,12.5,11.5
	c3.1,5.8,1.8,13.5-3,18.1c-2.3,2.4-5.6,3.5-8.7,4.5c-2.9,5.5-6.6,10.8-8.2,16.9c-7.2,20.4-3.2,44.5,10.5,61.3
	c7.3,7.7,16.2,14.8,26.9,16.7c10-0.2,20,2,30,0.9c8.4-0.6,16.8-1.2,25.1-2.5c33.2-5.9,64.7-21.6,89.4-44.8
	c25.5-23.6,43.8-54.6,52.3-88.3c-32.4,17.3-68.9,27.5-105.8,28.1c-7.8-0.3-14.5-7.6-14.3-15.4c-0.2-7.8,6.4-15,14.2-15.4
	c10.3-0.7,20.7-1.5,30.9-3.3c27.6-5.4,54.2-15.9,77.5-31.7c0.3-3.3,0.6-6.5,0.9-9.8c-28.3-30.2-67-49.9-107.4-57.9
	c-5.6-0.9-10.5-5-12.2-10.5c-2.2-6.6,0.6-14.5,6.7-18c4-2.6,9.1-2.6,13.7-1.5c34,7.1,66.8,21.2,94.6,42.2
	c-3.2-10.4-6.4-20.8-11.2-30.5c-11.5-24-28.3-45.4-48.9-62.1c-29.1-23.7-65.9-37.9-103.5-39.5C126.3,306.7,120.5,306,115,308
	 M871.8,308.4c-29.3,3.3-57.6,14.8-81.5,31.9c-30.2,21.9-53.6,53.1-65.4,88.5c22.7-13,47.2-23.3,73-28c7.8-1.4,15.9,4.4,17.3,12.2
	c1.9,8-3.9,16.8-12,18.3c-31.9,6.9-62.3,21-87.6,41.7c0.2,7.1,1.7,14,1.9,21c0.3,1.9-0.3,4.4,1.9,5.4c29,19.5,63,31.6,97.8,34.5
	c5.6,0.8,10.5,5.1,12.2,10.5c2.4,7-1.1,15.2-7.7,18.4c-5,2.8-10.9,1.4-16.3,0.9c-29.2-3.5-57.6-12.9-83.5-26.7
	c6.9,25,19.8,48,36.1,68c6.7,8.3,14.8,15.2,22.7,22.3c23.5,19.4,52.1,32.8,82.2,38.1c15.9,2.1,32.1,3.8,48.1,1.5
	c5.9-3,12.2-5.3,17.5-9.3c8.9-6,15.1-15.3,19.1-25.1c6.4-16.2,5.9-35.1-1.4-50.9c-3.3-7.5-8.6-13.9-13.9-20
	c-4.4-4.1-6.1-10.9-3.9-16.5c1.9-5.6,7.4-8.4,11-12.8c16.5-19.7,19.4-49.8,6.4-72.1c-5.4-10.2-14.3-18.3-24.6-23.4
	c-9.2-4.9-11.7-19.2-3.7-26.3c20.2-17.8,25.5-49.1,14.3-73.2c-6.2-14.3-18.8-25.8-33.7-30.1C889.3,306.4,880.5,307.6,871.8,308.4
	 M501.3,329.3c-19.5,0.7-38.9,4.7-57,11.9c-36.9,14.2-68.7,41.3-88.8,75.3c-21.1,34.9-29.5,77-24.3,117.3c3,17.8,7.1,35.5,15,51.8
	c7.1,16.2,17.2,30.9,28.6,44.4c25,27.8,58.4,48.2,95.1,56.1c10.8,2.6,21.9,3.3,33,4c9.4,0.7,18.7-0.6,28.1-1.4
	c13.5-1.1,26.7-4.9,39.5-9.4c33.2-12.4,62.5-34.8,83-63.8c19.5-27.3,31.3-60.1,33.3-93.6c-1.5-12.2-2.9-24.6-2.6-36.9
	c0.2-5.5-0.1-11.1-1.6-16.4c-6.5-27.4-19.2-53.4-37.2-75c-10.9-13.1-23.4-24.9-37.8-34.1C576.6,338.3,538.7,327.5,501.3,329.3z"/>
</svg>
