<?xml version="1.0" encoding="utf-8"?>
<!-- Generator: Adobe Illustrator 21.0.0, SVG Export Plug-In . SVG Version: 6.00 Build 0)  -->
<svg version="1.1" id="Layer_1" xmlns="http://www.w3.org/2000/svg" xmlns:xlink="http://www.w3.org/1999/xlink" x="0px" y="0px"
	 viewBox="0 0 1000 1000" style="enable-background:new 0 0 1000 1000;" xml:space="preserve">
<style type="text/css">
	.st0{fill:#D15A90;}
</style>
<path class="st0" d="M91.9,282.9c6.4-3.2,13.5-4.1,20.2-6.4c1.3-0.4,2.6-0.6,3.9-0.6c33.3-1.2,66.9,5.7,97,20.1
	c26.2,12.4,49.8,30.4,68.7,52.4c17.1,19.7,30.2,42.6,39.3,67c17.1-34.6,43.8-64.5,76.5-85c34.9-22.3,76.7-33.6,118.1-32.2
	c37.9,1.2,75.5,13,107.2,34c25.2,16.2,46.4,38.3,62.5,63.5c4.2,6.7,8.2,13.5,11.4,20.7c11.1-32.4,30.7-61.9,56-85
	c27.1-25.3,61.2-43,97.4-50.9c18-4.2,36.6-5.7,55-4.2c9.9,3.6,20,7.7,28.3,14.4c22.4,16.6,35.1,44.5,35.2,72.1
	c0.3,19.8-5.6,39.7-17.2,55.8c13.4,10.8,23.3,25.6,29,41.9c8.7,26.2,5.8,56.3-8.6,79.9c-2.4,3.7-5.1,7.2-7.7,10.7
	c19,24.4,24.1,58.4,14.3,87.6c-8.4,25.8-29,48.4-55.6,55.5c-2.7,1.4-5.3,3.2-8.4,3.4c-7,0.5-14.1,1.2-21.1,1.3
	c-12.2-0.6-24.5-1.4-36.6-3.4c-31-5.6-60.6-18.5-85.9-37.2c-27.5-19.8-49.6-46.8-64.5-77.1c-11.4,31.9-30.4,61.1-55.3,84.2
	c-26.9,25.1-60.6,42.8-96.5,50.9c-11.2,2.7-22.7,3.3-34.1,4.4c-10.4,1-20.8,0.2-31.2-0.6c-38.1-2.9-74.8-17.9-105.4-40.5
	c-14.3-11.2-28-23.5-39-38.1c-14.3-18-25.5-38.3-33.1-59.9c-14.5,30.1-36.6,56.3-63.4,76.3c-31,22.9-68.4,37.6-107,40.1
	c-4.6,0.3-9.2,0.6-13.9,1c-8,0.5-16-1.1-24-1c-8.5,0.6-16.7-2.4-24.4-5.6c-15.4-6.8-28.3-18.6-37-33c-18.9-31-18.2-73.2,3-102.9
	C35,546,28.1,533.3,24.2,519.7c-2.5-9.3-4.3-18.9-3.5-28.6c-0.6-13.4,3-26.7,8.7-38.7c6.2-13.6,16-25.4,28-34.3
	c-11.4-16.9-16.9-37.6-15.7-58c1.5-22.2,10.3-44.4,26.4-60C74.7,292.7,83.2,287.3,91.9,282.9 M106,310.9c-9,3.3-15.9,10.2-21.6,17.6
	c-17.3,23.6-14.9,59.5,5.4,80.6c4.4,4.8,5.1,12.7,1.5,18.2c-1.5,2.3-2.8,4.7-4.1,7.1c-2.7,4.6-8.3,6.2-12.3,9.4
	c-11.4,8.4-18.9,21.4-22.1,35.1c-3.8,20.8,1.2,44.4,17.3,59.1c4,4.1,10,6.2,12.5,11.5c3.1,5.8,1.8,13.5-3,18
	c-2.3,2.4-5.5,3.6-8.7,4.4c-2.8,5.6-6.6,10.8-8.2,16.9c-4,11.3-4.6,23.8-1.9,35.4c2.8,12,8.5,23.9,18.4,31.5c5.8,5.4,13,9.5,20.9,11
	c6.4,0,12.7,0.6,19,1.1c5.8,0.6,11.7-0.3,17.5-0.6c37.7-2,74.2-17.5,102.7-42c28.2-24.1,48.5-57.1,57.6-93.1
	c-32.5,17.4-68.9,27.5-105.8,28.1c-7.8-0.3-14.4-7.5-14.2-15.3c-0.2-7.8,6.4-15,14.2-15.4c10.3-0.7,20.7-1.5,30.9-3.3
	c27.6-5.4,54.2-16,77.5-31.7c0.3-3.3,0.6-6.5,0.9-9.8c-5.1-6-11.1-11-17.2-16c-24-20-53.2-33.4-83.5-40.5
	c-4.8-1.3-10.2-1.4-14.2-4.8c-5.5-4.4-7.2-12.7-3.9-18.9c3-6.3,10.5-9.7,17.2-8.1c34.8,6.9,68.4,21.2,96.8,42.6
	c-2.1-7.3-4.6-14.4-7.2-21.5c-16.1-38.9-46.1-72.2-83.8-91.2c-23.9-12.5-50.7-19.2-77.6-19.7C119.7,306,112.7,308.5,106,310.9
	 M857.9,310.5c-26.3,5.6-51.5,17.1-72.7,33.7c-27.8,21.5-49.2,51.3-60.2,84.6c22.4-12.9,46.6-23,72.1-27.9c7.4-1.7,15.4,3,17.7,10.2
	c2.6,7.1-1,15.7-7.8,18.8c-5.2,2.2-11,2.5-16.3,4.5c-27.3,7.4-52.9,20.6-74.9,38.4c0.2,8.5,2.1,16.8,2.2,25.4
	c29.2,20.2,63.9,32.6,99.4,35.6c5.9,0.8,10.9,5.5,12.4,11.2c2,6.8-1.6,14.7-7.9,17.8c-5.2,2.8-11.3,1.2-16.8,0.8
	c-29-3.6-57.2-12.9-82.9-26.6c6.2,22.4,17.2,43.3,31.2,61.8c8.2,11.3,18.6,20.7,29.1,29.8c23.2,18.7,51.2,31.6,80.6,36.8
	c15.9,2.2,32.1,3.7,48.1,1.5c8-3.9,16.5-7.4,23-13.7c22-21.1,24.1-58.8,5.5-82.8c-2.6-3.1-4.8-6.5-7.6-9.3
	c-4.7-4.5-5.7-12.2-2.6-17.9c2.7-4.8,7.8-7.6,11.1-12c6.8-8.7,11.3-19.4,12.9-30.3c4.1-24.6-7.9-52.2-30.8-63.4
	c-7.7-3.6-11.8-13.2-8.8-21.2c1.8-5.3,7-8.1,10.2-12.5c18.2-22.1,18.2-56.7,0.4-79.1c-6.7-8.3-15.9-14.7-26.2-17.7
	C884.6,306.3,871.2,308.4,857.9,310.5 M501.2,329.3c-26.3,0.9-52.3,8.1-75.6,20.4c-31.7,16.8-58.3,43.3-74.8,75.2
	c-18.1,33.6-24.6,73.2-19.3,110.9c2.3,11.7,4.4,23.5,8.6,34.7c6.6,18.4,15.9,35.8,28.1,51.1c9.5,13,21.7,23.8,34.3,33.6
	c25.8,18.9,56.6,31.6,88.6,34c8.9,0.7,17.9,1.5,26.8,0.6c10.4-1,20.9-1.5,31.1-4.1c36.9-8.6,70.9-29.4,95.3-58.4
	c23-27,37.7-61,41.7-96.3c0.5-4.3,1.2-8.7,0.4-13.1c-1.9-11.9-2.4-24-2.2-36.1c0.3-9.3-3-18.2-5.4-27
	c-11.2-35.7-33.7-67.7-63.6-90.2c-13.5-9.5-27.7-18.1-43.2-23.8C549.6,332.1,525.3,328.2,501.2,329.3z"/>
<path d="M892.5,336.6c7.9-3.3,17.8,1.4,20.3,9.6c2.9,8.1-2.3,17.7-10.7,19.7c-8,2.4-17.1-2.9-19-11
	C881,347.6,885.3,339.3,892.5,336.6z"/>
<path d="M97.5,339.7c8.5-2.6,18.2,3.5,19.4,12.3c1.7,8.5-5.1,17.5-13.8,18c-8.1,1-16.2-5.6-16.8-13.8
	C85.4,348.9,90.4,341.6,97.5,339.7z"/>
<path d="M916.4,462.5c7.7-1.5,15.8,3.9,17.5,11.5c2.7,10.1-6.6,21.2-17,20.4c-7.2-0.2-13.7-6.2-14.5-13.4
	C901.2,472.5,908.1,464,916.4,462.5z"/>
<path d="M80.4,472.8c8.4-2.6,18,3.4,19.3,12.1c1.8,8.6-5,17.6-13.7,18.2c-8.2,1-16.3-5.6-16.8-13.9
	C68.3,481.9,73.4,474.6,80.4,472.8z"/>
<path class="st0" d="M523.4,483.5c4.8-6.1,14.5-7.3,20.7-2.7c6.5,4.4,8.5,14,4.3,20.6c-2.5,3.8-5.4,7.4-7.7,11.3
	c-3.9,6.5-8.6,12.6-11.3,19.7c-3.1,7.3-12.4,10.8-19.7,7.8c-3.4-1.2-5.9-4-8-6.8c-5.6-7.7-12-14.7-18.5-21.5c-5.3-5.8-5-15.5,0.6-21
	c4.9-5.2,13.6-6.2,19.5-2.1c3.7,2.6,6.5,6.3,9.5,9.6C516.2,493.2,519.7,488.2,523.4,483.5z"/>
<path d="M89.3,599.5c8-2.9,17.6,2,19.8,10.2c2.6,8.1-2.8,17.6-11.2,19.4c-7.9,2.1-16.8-3.2-18.6-11.2
	C77.2,610.4,81.9,601.9,89.3,599.5z"/>
<path d="M911.5,599.7c8.7-2.6,18.5,4.1,19.3,13.2c1.3,8.6-6,17.2-14.7,17.2c-8,0.6-15.5-6-16-14
	C899.2,608.8,904.3,601.5,911.5,599.7z"/>
</svg>
