<?xml version="1.0" encoding="utf-8"?>
<!-- Generator: Adobe Illustrator 21.0.0, SVG Export Plug-In . SVG Version: 6.00 Build 0)  -->
<svg version="1.1" id="Layer_1" xmlns="http://www.w3.org/2000/svg" xmlns:xlink="http://www.w3.org/1999/xlink" x="0px" y="0px"
	 viewBox="0 0 1000 1000" style="enable-background:new 0 0 1000 1000;" xml:space="preserve">
<style type="text/css">
	.st0{fill:#D15A90;}
</style>
<path class="st0" d="M104.4,281.5c3.2-4.1,8.5-5.9,13.6-5.7c36.7-1,73.5,7.9,105.6,25.6c26.6,14.5,49.8,34.9,67.7,59.2
	c12.5,16.7,22.2,35.4,29.6,54.9c19.1-38.8,50.4-71.5,88.5-92c33.9-18.4,73.1-27.2,111.6-24.8c49.2,2.7,96.9,23.9,132.3,58.1
	c17.5,17.4,32.9,37.3,43.2,59.9c11.2-32.4,30.7-61.9,55.9-85c27.3-25.5,61.6-43.2,98.1-51c17.2-4,34.9-5.3,52.4-4.2
	c5.7,0.3,11,4.2,13.1,9.5c1,2.6,1,5.5,2,8.2c26.5,57.6,39.6,120.9,42.8,184.1c3.2,69.9-5.4,140.8-29.2,206.8
	c-2.1,7.1-9.4,10.5-15.8,12.8c-11.9,1.4-24,2-36,0.8c-62-3.2-121-37.1-156.6-87.7c-6.5-9.2-12.3-19-17.4-29.1
	c-11.4,31.9-30.5,61.1-55.3,84c-26.7,24.9-60.1,42.5-95.6,50.6c-11.4,2.9-23.2,3.5-34.9,4.6c-9.7,1-19.5,0.3-29.2-0.5
	c-32.8-2.2-64.9-13.1-92.6-30.7c-12.6-7.3-23.7-16.8-34.4-26.6c-13.5-12.7-24.8-27.7-34.7-43.4c-7-12.1-13.4-24.8-17.9-38
	c-14.4,29.3-35.7,55.2-61.7,74.9c-30.8,23.2-68,38.3-106.5,41.2c-9.3,0.6-18.7,1.9-28,0.8c-3.2-0.1-6.8-1.3-9.6,0.8
	c-5.5,3.3-13,2.3-17.7-2c-2.5-2.2-3.9-5.2-5-8.2c-15.6-43.5-24.5-89.3-27.9-135.3c-4.2-56.8-0.1-114.3,13-169.8
	c7.3-30.9,17.7-61.2,31.4-90C101.4,290.1,101.2,285,104.4,281.5 M127.8,306.7c-7,13.9-13.1,28.4-17.8,43.2
	c-11.3,31.9-18.2,65.3-22.2,98.9c-8.3,73-2.5,148.1,20.1,218.2c8.7,0.7,17.5,1.5,26.2,0.4c34.7-1.4,68.6-14.3,96.3-35.1
	c28.9-21.9,51-52.5,62.5-86.9c-21.3,8.7-43.9,14.3-66.8,16c-8.7,0.5-17.4,1.6-26.1,1.1c-7.5-0.4-13.8-7.1-14.1-14.5
	c-0.6-8.1,6.1-15.9,14.2-16.2c14.4-0.2,28.7-1.4,42.9-3.7c19.4-3.7,38.3-10.3,55.9-19.4c0.1-10.5,1.1-21,2.5-31.4
	c-1.8-1-3.7-2-5.3-3.4c-25-26.1-57.5-45-92.5-54.2c-3.7-1-7.6-2-10.3-4.8c-5.3-4.9-6.2-13.7-2.1-19.6c3.5-5.5,10.7-8.1,17-6.3
	c30.5,7.8,59.7,21.4,84.5,40.8c-14.1-44-46.3-81.8-87.4-102.9C181.4,314.2,154.7,307.3,127.8,306.7 M845.4,313.6
	c-34.8,9.8-66.2,30.8-89.2,58.7c-11.9,14.4-21.2,30.7-28.3,47.9c25.1-18.1,53.8-31.3,84-38.2c4.5-1,9.5,0.2,13,3.2
	c5.3,4.2,7.2,12,4.4,18.2c-2,4.7-6.4,8.1-11.4,9c-36.1,8.5-69.8,27.2-95.9,53.6c-1.8,2-3.9,3.6-6.2,5.1c-0.5,7.2,1.3,14.2,1.7,21.3
	c11.3,5.6,23.2,10,35.4,13.4c17.8,5.3,36.5,6.6,55,7.3c5.9-0.1,12.4-1.6,17.5,2.2c7.9,5,9.2,17.2,2.4,23.7c-5.1,5.5-13.2,4.8-20,5.1
	c-8.7-0.3-17.4-1-26.1-1.7c-21.5-1.8-42.5-7.5-62.5-15.3c3.7,15.5,8.9,30.8,16.5,44.9c7.6,13.6,16.1,26.8,26.7,38.3
	c5.3,6,11.6,11,17.4,16.5c23.9,19.9,53,33.6,83.7,38.8c13.6,1.7,27.3,3.3,41,2c6.6-18.8,11.6-38.1,15.6-57.6
	c12.9-65,13.5-132.5,2-197.8c-6.5-36.2-16.9-71.8-32.4-105.2C875,307.7,859.9,309.4,845.4,313.6 M446.2,340.4
	C523.1,417.3,600,494.1,676.8,571c5.6-15.8,9.2-32.3,10.1-49c-0.6-6.7-1.6-13.3-2.6-19.9c-0.2-9,0.5-18.1-0.3-27.1
	c-8.1-42.8-32.5-82.3-67-109c-14.3-10.4-29.7-19.7-46.4-25.7C530.9,325.3,485.9,325.5,446.2,340.4 M378.2,386.1
	c84.7,84.8,169.4,169.5,254.1,254.1c12.1-11.5,22.3-24.9,30.7-39.3c-82.1-82.1-164.2-164-246.1-246.2
	C402.6,363.3,389.7,374,378.2,386.1 M342.1,444c-7.9,20.1-11.8,41.5-12.4,63.1c-0.2,3.7,1.2,7.3,1,11c-1.1,9.8,1.1,19.5,3.1,29.1
	c6.1,31.9,21.9,61.5,43.5,85.5c27.6,29.7,65.2,50.4,105.5,55.8c10.3,1,20.7,2.2,31,1.8c13.1-1.1,26.3-1.7,39-5.4
	c19.7-5.1,38.3-13.6,55.2-24.9c-83-83.1-166-166.2-249.2-249.2C352.5,421.4,346.4,432.3,342.1,444z"/>
</svg>
