<?xml version="1.0" encoding="utf-8"?>
<!-- Generator: Adobe Illustrator 21.0.0, SVG Export Plug-In . SVG Version: 6.00 Build 0)  -->
<svg version="1.1" id="Layer_1" xmlns="http://www.w3.org/2000/svg" xmlns:xlink="http://www.w3.org/1999/xlink" x="0px" y="0px"
	 viewBox="0 0 1000 1000" style="enable-background:new 0 0 1000 1000;" xml:space="preserve">
<style type="text/css">
	.st0{fill:#D15A90;}
</style>
<path class="st0" d="M104.9,280.9c2.8-3.1,6.9-5,11.1-5.1c36.8-1.4,73.9,7.3,106.3,24.8c27.7,14.9,51.9,36.2,70.3,61.7
	c11.9,16.2,21.2,34.3,28.2,53.1c19.1-38.8,50.4-71.5,88.4-92c33.9-18.4,73.1-27.3,111.6-24.8c49,2.7,96.5,23.7,131.9,57.6
	c17.8,17.5,33.3,37.6,43.7,60.4c11.1-32.4,30.6-61.9,55.9-85c27.1-25.3,61.2-43,97.5-50.9c17.4-4.1,35.3-5.5,53.2-4.4
	c5.5,0.3,10.5,4,12.8,8.9c1.2,2.8,1.2,6,2.3,8.9c26.5,57.6,39.6,120.9,42.7,184c3.1,68.6-5.1,138.1-27.9,203.1
	c-1.4,4.4-3.1,9.2-7.3,11.8c-3.9,2.3-8,4.9-12.7,5.2c-6.6,0.4-13.3,1.1-20,1.1c-12.2-0.6-24.5-1.4-36.5-3.4
	c-33.1-5.9-64.6-20.3-91-41c-25.3-19.2-45.2-44.8-59.5-73c-12.4,34.5-33.7,65.8-61.7,89.6c-27.3,23.4-60.8,39.6-96.1,46.4
	c-8.6,1.7-17.4,2.1-26.1,3c-14.4,1.5-28.9,0-43.2-1.5c-29-4-57.1-14.5-81.8-30.3c-11.7-6.9-22-15.8-32.1-24.8
	c-14-12.9-25.6-28.2-35.7-44.3c-7-12.2-13.4-24.8-17.9-38.2c-15.3,31.6-38.8,59-67.4,79.2c-24.4,17.3-52.6,29.2-82,34.7
	c-11.9,2-23.9,2.7-35.9,3.5c-6.1,0.3-12.1-0.8-18.1-0.8c-2.9,1.2-5.7,3.1-8.9,3.1c-6.9,0.6-13.5-4.1-15.6-10.6
	C68.8,650.9,60.1,609.1,55.9,567c-5.8-60.8-2.2-122.6,11.7-182.2c7.4-31.2,17.8-61.8,31.5-90.8C101.4,289.9,101.3,284.5,104.9,280.9
	 M127.8,306.7c-5.2,10.2-9.8,20.7-13.8,31.4c-5.5,15.8-10.9,31.7-14.9,48C86.8,436,82.3,487.6,84.9,538.9
	c2.2,43.4,9.5,86.7,23,128.1c6.7,0.4,13.4,1.4,20.2,0.8c10.4-0.8,20.9-1.3,31.1-3.4c24.1-5,47.2-14.9,67.2-29.2
	c30.9-22,54.6-53.9,66.6-89.9c-23.5,9.7-48.5,15.2-73.8,16.5c-7.8,0.2-16.1,2-23.7-0.4c-8.1-3.1-12.1-13.5-8-21.1
	c2.3-4.8,7.2-8.3,12.6-8.5c14.3-0.2,28.7-1.4,42.9-3.7c19.5-3.7,38.3-10.3,55.9-19.4c0.1-10.5,1.1-21,2.5-31.4
	c-3.2-1.5-5.9-3.8-8.2-6.4c-25-25-56.9-42.9-91.1-51.7c-4.6-1-9.1-3.5-11.4-7.8c-3.9-6.6-2-15.9,4.3-20.2c4-3,9.3-3.6,14-2.2
	c30.2,7.8,59,21.4,83.7,40.5c-15.1-47-50.9-87-96.1-107C175.1,312.5,151.4,307.4,127.8,306.7 M845.4,313.6
	c-34.9,9.8-66.2,30.8-89.2,58.7c-11.9,14.3-21.2,30.7-28.2,47.9c24.8-17.9,53.1-30.9,82.9-38c4.6-1.2,9.7-0.4,13.5,2.5
	c5.2,3.8,7.6,11,5.5,17.1c-1.6,5.4-6.5,9.5-12,10.5c-36.1,8.5-69.8,27.2-95.9,53.6c-1.8,1.9-3.9,3.6-6.1,5.1
	c-0.5,7.2,1.3,14.2,1.8,21.3c14.7,7.2,30.3,12.5,46.3,16.1c13.8,3,28,3.8,42.2,4.6c6.5,0.3,13.8-2,19.5,2.2c7.9,5,9.1,17.2,2.4,23.7
	c-4.8,5.3-12.5,4.8-19,5.1c-8.7-0.1-17.4-0.9-26-1.6c-21.8-1.7-43.2-7.4-63.5-15.4c3.8,15.5,8.9,30.8,16.6,44.9
	c8.9,16.1,19.3,31.6,32.7,44.4c6.8,6.2,13.5,12.6,21,17.9c25.8,18.6,56.6,30.7,88.4,32.9c8.9,0.8,17.9,1.4,26.8,0.4
	c16.5-48,24.5-98.8,25.5-149.5c1-37.1-2.1-74.4-8.9-110.9c-6.6-34.4-16.7-68.3-31.5-100.1C875,307.7,859.9,309.3,845.4,313.6
	 M501.3,329.3c-30.9,1.1-61.5,10.7-87.5,27.4c-33,20.7-58.6,52.5-72.3,88.9c-7.5,19.6-11.2,40.5-11.7,61.4c-0.2,3.7,1.2,7.3,1,11
	c-1.1,9.6,1,19.1,2.9,28.5c5.3,27.9,17.8,54.3,35.5,76.4c9.4,12.5,21.1,22.8,33.4,32.4c25.8,18.9,56.6,31.6,88.6,34
	c9.9,0.9,20,1.6,29.9,0.3c46.9-2.3,91.9-25.7,122.4-61.2c25.1-29,40.5-66.2,43.3-104.5c0.2-5.4-1.2-10.8-1.7-16.2
	c-1.7-7.9-0.6-15.9-0.8-23.9c0.7-10.3-2.9-20.1-5.6-29.8c-11.3-35.4-33.7-67.1-63.3-89.4c-13.9-9.8-28.7-18.7-44.7-24.4
	C548.6,332,524.8,328.3,501.3,329.3z"/>
<path class="st0" d="M413.4,439.6c5.2-1.3,10.9,0.4,14.7,4.2c39.4,39.4,78.7,78.8,118.1,118.1c6.5,6,6.2,17.8-0.9,23.3
	c-4.1,3.3-9.9,4.5-14.9,2.6c-5.2-1.8-8.4-6.4-12.2-10c-32.5-32.5-64.9-65-97.4-97.5c-5.5-5.9-11.8-11-16.8-17.3
	C398.1,454.6,403.4,441.7,413.4,439.6z"/>
<path class="st0" d="M520.1,477c5.5-1.7,11.9-0.4,15.9,3.9c28.6,28.7,57.4,57.4,86,86c5.7,5.4,6,15.2,0.8,21
	c-4.2,5.1-11.8,6.8-17.9,4.2c-3.4-1.4-5.8-4.2-8.3-6.8c-27.2-27.1-54.2-54.3-81.5-81.4c-3.2-3.1-5.8-7.3-5.6-11.9
	C509.2,485.4,513.8,478.9,520.1,477z"/>
</svg>
